<svg width="140" height="36" viewBox="0 0 140 36" fill="none" xmlns="http://www.w3.org/2000/svg">
<path d="M0 7C0 5.89543 0.895431 5 2 5H16C19.3137 5 22 7.68629 22 11V30C22 30.5523 21.5523 31 21 31H2C0.89543 31 0 30.1046 0 29V7Z" fill="#E42313"/>
<path d="M33.8 9.152C35.576 9.152 37.128 9.504 38.456 10.208C39.784 10.912 40.808 11.904 41.528 13.184C42.264 14.448 42.632 15.912 42.632 17.576C42.632 19.224 42.264 20.688 41.528 21.968C40.808 23.248 39.776 24.24 38.432 24.944C37.104 25.648 35.56 26 33.8 26H27.488V9.152H33.8ZM33.536 22.448C35.088 22.448 36.296 22.024 37.16 21.176C38.024 20.328 38.456 19.128 38.456 17.576C38.456 16.024 38.024 14.816 37.16 13.952C36.296 13.088 35.088 12.656 33.536 12.656H31.592V22.448H33.536ZM44.1095 19.28C44.1095 17.904 44.3655 16.696 44.8775 15.656C45.4055 14.616 46.1175 13.816 47.0135 13.256C47.9095 12.696 48.9095 12.416 50.0135 12.416C50.9575 12.416 51.7815 12.608 52.4855 12.992C53.2055 13.376 53.7575 13.88 54.1415 14.504V12.608H58.2455V26H54.1415V24.104C53.7415 24.728 53.1815 25.232 52.4615 25.616C51.7575 26 50.9335 26.192 49.9895 26.192C48.9015 26.192 47.9095 25.912 47.0135 25.352C46.1175 24.776 45.4055 23.968 44.8775 22.928C44.3655 21.872 44.1095 20.656 44.1095 19.28ZM54.1415 19.304C54.1415 18.28 53.8535 17.472 53.2775 16.88C52.7175 16.288 52.0295 15.992 51.2135 15.992C50.3975 15.992 49.7015 16.288 49.1255 16.88C48.5655 17.456 48.2855 18.256 48.2855 19.28C48.2855 20.304 48.5655 21.12 49.1255 21.728C49.7015 22.32 50.3975 22.616 51.2135 22.616C52.0295 22.616 52.7175 22.32 53.2775 21.728C53.8535 21.136 54.1415 20.328 54.1415 19.304ZM66.3026 12.416C67.2466 12.416 68.0706 12.608 68.7746 12.992C69.4946 13.376 70.0466 13.88 70.4306 14.504V12.608H74.5346V25.976C74.5346 27.208 74.2866 28.32 73.7906 29.312C73.3106 30.32 72.5666 31.12 71.5586 31.712C70.5666 32.304 69.3266 32.6 67.8386 32.6C65.8546 32.6 64.2466 32.128 63.0146 31.184C61.7826 30.256 61.0786 28.992 60.9026 27.392H64.9586C65.0866 27.904 65.3906 28.304 65.8706 28.592C66.3506 28.896 66.9426 29.048 67.6466 29.048C68.4946 29.048 69.1666 28.8 69.6626 28.304C70.1746 27.824 70.4306 27.048 70.4306 25.976V24.08C70.0306 24.704 69.4786 25.216 68.7746 25.616C68.0706 26 67.2466 26.192 66.3026 26.192C65.1986 26.192 64.1986 25.912 63.3026 25.352C62.4066 24.776 61.6946 23.968 61.1666 22.928C60.6546 21.872 60.3986 20.656 60.3986 19.28C60.3986 17.904 60.6546 16.696 61.1666 15.656C61.6946 14.616 62.4066 13.816 63.3026 13.256C64.1986 12.696 65.1986 12.416 66.3026 12.416ZM70.4306 19.304C70.4306 18.28 70.1426 17.472 69.5666 16.88C69.0066 16.288 68.3186 15.992 67.5026 15.992C66.6866 15.992 65.9906 16.288 65.4146 16.88C64.8546 17.456 64.5746 18.256 64.5746 19.28C64.5746 20.304 64.8546 21.12 65.4146 21.728C65.9906 22.32 66.6866 22.616 67.5026 22.616C68.3186 22.616 69.0066 22.32 69.5666 21.728C70.1426 21.136 70.4306 20.328 70.4306 19.304ZM90.1276 19.088C90.1276 19.472 90.1036 19.872 90.0556 20.288H80.7676C80.8316 21.12 81.0956 21.76 81.5596 22.208C82.0396 22.64 82.6236 22.856 83.3116 22.856C84.3356 22.856 85.0476 22.424 85.4476 21.56H89.8156C89.5916 22.44 89.1836 23.232 88.5916 23.936C88.0156 24.64 87.2876 25.192 86.4076 25.592C85.5276 25.992 84.5436 26.192 83.4556 26.192C82.1436 26.192 80.9756 25.912 79.9516 25.352C78.9276 24.792 78.1276 23.992 77.5516 22.952C76.9756 21.912 76.6876 20.696 76.6876 19.304C76.6876 17.912 76.9676 16.696 77.5276 15.656C78.1036 14.616 78.9036 13.816 79.9276 13.256C80.9516 12.696 82.1276 12.416 83.4556 12.416C84.7516 12.416 85.9036 12.688 86.9116 13.232C87.9196 13.776 88.7036 14.552 89.2636 15.56C89.8396 16.568 90.1276 17.744 90.1276 19.088ZM85.9276 18.008C85.9276 17.304 85.6876 16.744 85.2076 16.328C84.7276 15.912 84.1276 15.704 83.4076 15.704C82.7196 15.704 82.1356 15.904 81.6556 16.304C81.1916 16.704 80.9036 17.272 80.7916 18.008H85.9276ZM100.453 12.464C102.021 12.464 103.269 12.976 104.197 14C105.141 15.008 105.613 16.4 105.613 18.176V26H101.533V18.728C101.533 17.832 101.301 17.136 100.837 16.64C100.373 16.144 99.7487 15.896 98.9647 15.896C98.1807 15.896 97.5567 16.144 97.0927 16.64C96.6287 17.136 96.3967 17.832 96.3967 18.728V26H92.2927V12.608H96.3967V14.384C96.8127 13.792 97.3727 13.328 98.0767 12.992C98.7807 12.64 99.5727 12.464 100.453 12.464ZM107.649 19.28C107.649 17.904 107.905 16.696 108.417 15.656C108.945 14.616 109.657 13.816 110.553 13.256C111.449 12.696 112.449 12.416 113.553 12.416C114.433 12.416 115.233 12.6 115.953 12.968C116.689 13.336 117.265 13.832 117.681 14.456V8.24H121.785V26H117.681V24.08C117.297 24.72 116.745 25.232 116.025 25.616C115.321 26 114.497 26.192 113.553 26.192C112.449 26.192 111.449 25.912 110.553 25.352C109.657 24.776 108.945 23.968 108.417 22.928C107.905 21.872 107.649 20.656 107.649 19.28ZM117.681 19.304C117.681 18.28 117.393 17.472 116.817 16.88C116.257 16.288 115.569 15.992 114.753 15.992C113.937 15.992 113.241 16.288 112.665 16.88C112.105 17.456 111.825 18.256 111.825 19.28C111.825 20.304 112.105 21.12 112.665 21.728C113.241 22.32 113.937 22.616 114.753 22.616C115.569 22.616 116.257 22.32 116.817 21.728C117.393 21.136 117.681 20.328 117.681 19.304ZM123.938 19.28C123.938 17.904 124.194 16.696 124.706 15.656C125.234 14.616 125.946 13.816 126.842 13.256C127.738 12.696 128.738 12.416 129.842 12.416C130.786 12.416 131.61 12.608 132.314 12.992C133.034 13.376 133.586 13.88 133.97 14.504V12.608H138.074V26H133.97V24.104C133.57 24.728 133.01 25.232 132.29 25.616C131.586 26 130.762 26.192 129.818 26.192C128.73 26.192 127.738 25.912 126.842 25.352C125.946 24.776 125.234 23.968 124.706 22.928C124.194 21.872 123.938 20.656 123.938 19.28ZM133.97 19.304C133.97 18.28 133.682 17.472 133.106 16.88C132.546 16.288 131.858 15.992 131.042 15.992C130.226 15.992 129.53 16.288 128.954 16.88C128.394 17.456 128.114 18.256 128.114 19.28C128.114 20.304 128.394 21.12 128.954 21.728C129.53 22.32 130.226 22.616 131.042 22.616C131.858 22.616 132.546 22.32 133.106 21.728C133.682 21.136 133.97 20.328 133.97 19.304Z" fill="#6E6F71"/>
</svg>
